# xmcd CD database file
#
# Track frame offsets:
#	150
#	17147
#	34900
#	47637
#
# Disc length: 882 seconds
#
# Revision: 0
# Processed by: cddbd v1.5.1PL0 Copyright (c) Steve Scherf et al.
# Submitted via: CDex 1.51
#
DISCID=2b037004
DTITLE=ジャパジャリネット - 遙かなる日々
DYEAR=2004
DGENRE=JPop
TTITLE0=遙かなる日々
TTITLE1=あるがために
TTITLE2=流線と爆撃
TTITLE3=遠きトモシビ
EXTD=YEAR: 2004
EXTT0=
EXTT1=
EXTT2=
EXTT3=
PLAYORDER=
